<svg width="1720" height="102" viewBox="0 0 1720 102" fill="none" xmlns="http://www.w3.org/2000/svg">
<g filter="url(#filter0_b_503_320)">
<mask id="path-1-inside-1_503_320" fill="white">
<path fill-rule="evenodd" clip-rule="evenodd" d="M1720 10C1720 4.47715 1715.52 0 1710 0H10C4.47715 0 0 4.47715 0 10V76C0 81.5229 4.47715 86 10 86H518.784C522.825 86 526.469 88.4324 528.019 92.1646L529.543 95.8354C531.093 99.5676 534.737 102 538.779 102H1176.22C1180.26 102 1183.91 99.5676 1185.46 95.8353L1186.98 92.1647C1188.53 88.4324 1192.18 86 1196.22 86H1710C1715.52 86 1720 81.5229 1720 76V10Z"/>
</mask>
<path fill-rule="evenodd" clip-rule="evenodd" d="M1720 10C1720 4.47715 1715.52 0 1710 0H10C4.47715 0 0 4.47715 0 10V76C0 81.5229 4.47715 86 10 86H518.784C522.825 86 526.469 88.4324 528.019 92.1646L529.543 95.8354C531.093 99.5676 534.737 102 538.779 102H1176.22C1180.26 102 1183.91 99.5676 1185.46 95.8353L1186.98 92.1647C1188.53 88.4324 1192.18 86 1196.22 86H1710C1715.52 86 1720 81.5229 1720 76V10Z" fill="#11140C" fill-opacity="0.2"/>
<path d="M1186.98 92.1647L1185.13 91.3976L1186.98 92.1647ZM1185.46 95.8353L1187.3 96.6024L1185.46 95.8353ZM529.543 95.8354L531.39 95.0683L529.543 95.8354ZM528.019 92.1646L526.172 92.9317L528.019 92.1646ZM10 2H1710V-2H10V2ZM2 76V10H-2V76H2ZM518.784 84H10V88H518.784V84ZM526.172 92.9317L527.696 96.6024L531.39 95.0683L529.866 91.3976L526.172 92.9317ZM538.779 104H1176.22V100H538.779V104ZM1187.3 96.6024L1188.83 92.9317L1185.13 91.3976L1183.61 95.0683L1187.3 96.6024ZM1710 84H1196.22V88H1710V84ZM1718 10V76H1722V10H1718ZM1710 88C1716.63 88 1722 82.6274 1722 76H1718C1718 80.4183 1714.42 84 1710 84V88ZM1188.83 92.9317C1190.07 89.946 1192.98 88 1196.22 88V84C1191.37 84 1186.99 86.9189 1185.13 91.3976L1188.83 92.9317ZM1176.22 104C1181.07 104 1185.44 101.081 1187.3 96.6024L1183.61 95.0683C1182.37 98.054 1179.45 100 1176.22 100V104ZM527.696 96.6024C529.556 101.081 533.929 104 538.779 104V100C535.546 100 532.63 98.0541 531.39 95.0683L527.696 96.6024ZM518.784 88C522.017 88 524.932 89.9459 526.172 92.9317L529.866 91.3976C528.006 86.9189 523.633 84 518.784 84V88ZM-2 76C-2 82.6274 3.37258 88 10 88V84C5.58172 84 2 80.4183 2 76H-2ZM1710 2C1714.42 2 1718 5.58172 1718 10H1722C1722 3.37258 1716.63 -2 1710 -2V2ZM10 -2C3.37258 -2 -2 3.37258 -2 10H2C2 5.58172 5.58172 2 10 2V-2Z" fill="#FCFC03" mask="url(#path-1-inside-1_503_320)"/>
</g>
<defs>
<filter id="filter0_b_503_320" x="-30" y="-30" width="1780" height="162" filterUnits="userSpaceOnUse" color-interpolation-filters="sRGB">
<feFlood flood-opacity="0" result="BackgroundImageFix"/>
<feGaussianBlur in="BackgroundImageFix" stdDeviation="15"/>
<feComposite in2="SourceAlpha" operator="in" result="effect1_backgroundBlur_503_320"/>
<feBlend mode="normal" in="SourceGraphic" in2="effect1_backgroundBlur_503_320" result="shape"/>
</filter>
</defs>
</svg>
