<svg width="30" height="30" viewBox="0 0 24 24" fill="none" xmlns="http://www.w3.org/2000/svg">
<path d="M10.5064 8.79207C10.5064 8.79207 10.9405 8.35807 11.7289 8.35807C12.5172 8.35807 12.9514 8.79207 12.9514 8.79207C17.807 6.39952 18.424 3.47283 18.424 3.47283C17.807 4.38533 16.813 4.65241 16.813 4.65241C14.905 2.50468 11.7289 2.48242 11.7289 2.48242C11.7289 2.48242 8.5641 2.50468 6.65611 4.64128C6.65611 4.64128 5.66212 4.3742 5.04517 3.4617C5.04517 3.47283 5.66212 6.39952 10.5064 8.79207Z" fill="#F1F1F1"/>
<path d="M8.1185 9.78237C8.87256 10.2831 9.90082 9.78237 9.90082 9.78237C9.90082 9.78237 8.44983 8.95888 7.68435 8.25781C7.68435 8.25781 7.36444 9.2816 8.1185 9.78237Z" fill="#F1F1F1"/>
<path d="M11.7287 9.50391C11.7287 9.50391 10.1521 9.69308 10.1521 11.5515C10.1521 12.6643 10.1521 12.6643 10.1521 12.6643L8.96387 13.3654C8.96387 13.3654 10.4606 13.7215 11.7287 17.6052C12.9969 13.7215 14.4936 13.3654 14.4936 13.3654L13.3054 12.6643C13.3054 12.6643 13.3054 12.6643 13.3054 11.5515C13.3168 9.70421 11.7287 9.50391 11.7287 9.50391Z" fill="#F1F1F1"/>
<path d="M18.8697 14.2788C18.7212 12.1867 18.9954 7.61306 17.8529 6.15527C17.8529 6.15527 17.156 7.07891 16.6761 7.54629C16.6761 7.54629 17.0646 8.18059 17.0646 9.02633C17.0646 9.87207 16.2648 11.0962 14.4139 11.0962L14.4939 12.1088L16.7104 13.4331C16.7104 13.4331 14.4254 13.7224 13.3628 16.4599C12.3003 19.1974 11.729 21.3229 11.729 21.3229C11.729 21.3229 11.1578 19.1974 10.0952 16.4599C9.03271 13.7224 6.74768 13.4331 6.74768 13.4331L8.96416 12.1088L9.04414 11.0962C7.19326 11.0962 6.39351 9.86094 6.39351 9.02633C6.39351 8.19172 6.78196 7.54629 6.78196 7.54629C6.31353 7.07891 5.6166 6.15527 5.6166 6.15527C4.47409 7.61306 4.74829 12.1867 4.59976 14.2788C4.45123 16.3598 3.00024 19.0305 3.00024 19.0305C3.3887 18.8636 5.31954 17.1499 5.31954 17.1499L7.09044 19.7984L8.86133 18.2404L11.7405 22.6694L14.6196 18.2404L16.3905 19.7984L18.1614 17.1499C18.1614 17.1499 20.0922 18.8525 20.4807 19.0305C20.4693 19.0416 19.0183 16.3598 18.8697 14.2788Z" fill="#F1F1F1"/>
<path d="M15.3504 9.78237C16.1045 9.2816 15.7846 8.25781 15.7846 8.25781C15.0077 8.95889 13.5681 9.78237 13.5681 9.78237C13.5681 9.78237 14.585 10.272 15.3504 9.78237Z" fill="#F1F1F1"/>
</svg>
