<svg width="359" height="210" viewBox="0 0 359 210" fill="none" xmlns="http://www.w3.org/2000/svg">
<g filter="url(#filter0_b_22_258)">
<mask id="path-1-inside-1_22_258" fill="white">
<path fill-rule="evenodd" clip-rule="evenodd" d="M359 10C359 4.47715 354.523 0 349 0H10C4.47715 0 0 4.47714 0 9.99999V167.924C0 173.447 4.47715 177.924 10 177.924H42.5616C47.7865 177.924 52.1307 181.947 52.5321 187.156L53.5808 200.768C53.9822 205.978 58.3263 210 63.5512 210H293.449C298.674 210 303.018 205.978 303.419 200.768L304.468 187.156C304.869 181.947 309.214 177.924 314.438 177.924H349C354.523 177.924 359 173.447 359 167.924V10Z"/>
</mask>
<path fill-rule="evenodd" clip-rule="evenodd" d="M359 10C359 4.47715 354.523 0 349 0H10C4.47715 0 0 4.47714 0 9.99999V167.924C0 173.447 4.47715 177.924 10 177.924H42.5616C47.7865 177.924 52.1307 181.947 52.5321 187.156L53.5808 200.768C53.9822 205.978 58.3263 210 63.5512 210H293.449C298.674 210 303.018 205.978 303.419 200.768L304.468 187.156C304.869 181.947 309.214 177.924 314.438 177.924H349C354.523 177.924 359 173.447 359 167.924V10Z" fill="#11140C" fill-opacity="0.2"/>
<path d="M304.468 187.156L306.462 187.31L304.468 187.156ZM303.419 200.768L301.425 200.615L303.419 200.768ZM53.5808 200.768L51.5867 200.922L53.5808 200.768ZM10 2H349V-2H10V2ZM2 167.924V9.99999H-2V167.924H2ZM42.5616 175.924H10V179.924H42.5616V175.924ZM50.538 187.31L51.5867 200.922L55.5749 200.615L54.5262 187.002L50.538 187.31ZM63.5512 212H293.449V208H63.5512V212ZM305.413 200.922L306.462 187.31L302.474 187.002L301.425 200.615L305.413 200.922ZM349 175.924H314.438V179.924H349V175.924ZM357 10V167.924H361V10H357ZM349 179.924C355.627 179.924 361 174.552 361 167.924H357C357 172.342 353.418 175.924 349 175.924V179.924ZM306.462 187.31C306.783 183.142 310.258 179.924 314.438 179.924V175.924C308.169 175.924 302.955 180.751 302.474 187.002L306.462 187.31ZM293.449 212C299.719 212 304.932 207.173 305.413 200.922L301.425 200.615C301.104 204.782 297.629 208 293.449 208V212ZM51.5867 200.922C52.0683 207.173 57.2814 212 63.5512 212V208C59.3713 208 55.896 204.782 55.5749 200.615L51.5867 200.922ZM42.5616 179.924C46.7415 179.924 50.2169 183.142 50.538 187.31L54.5262 187.002C54.0445 180.751 48.8315 175.924 42.5616 175.924V179.924ZM-2 167.924C-2 174.552 3.37259 179.924 10 179.924V175.924C5.58172 175.924 2 172.342 2 167.924H-2ZM349 2C353.418 2 357 5.58172 357 10H361C361 3.37258 355.627 -2 349 -2V2ZM10 -2C3.37259 -2 -2 3.37257 -2 9.99999H2C2 5.58172 5.58172 2 10 2V-2Z" fill="#FCFC03" mask="url(#path-1-inside-1_22_258)"/>
</g>
<defs>
<filter id="filter0_b_22_258" x="-30" y="-30" width="419" height="270" filterUnits="userSpaceOnUse" color-interpolation-filters="sRGB">
<feFlood flood-opacity="0" result="BackgroundImageFix"/>
<feGaussianBlur in="BackgroundImageFix" stdDeviation="15"/>
<feComposite in2="SourceAlpha" operator="in" result="effect1_backgroundBlur_22_258"/>
<feBlend mode="normal" in="SourceGraphic" in2="effect1_backgroundBlur_22_258" result="shape"/>
</filter>
</defs>
</svg>
