<svg width="30" height="30" viewBox="0 0 21 20" fill="none" xmlns="http://www.w3.org/2000/svg">
<path d="M19.1061 7.34696L18.0235 6.30176C17.2865 6.88154 16.0115 7.3692 15.2086 7.62177C15.1724 7.63288 15.1379 7.64718 15.1017 7.65989C14.8895 7.86162 14.6822 8.07448 14.488 8.29845L16.0691 9.82496L19.0255 12.6794L19.1061 12.6016C20.6081 11.1497 20.6081 8.79722 19.1061 7.34696Z" fill="#F1F1F1"/>
<path d="M4.73448 9.82374L7.81263 6.85174C7.89324 6.63889 7.98043 6.42444 8.0775 6.21477C9.00539 4.20696 11.0882 3.52551 13.0476 3.49215C13.3059 3.05056 13.7945 2.7567 14.344 2.75034L13.1216 1.57012C11.6196 0.119857 9.18307 0.119857 7.68101 1.57012L7.6004 1.64795L1.77808 7.2695L4.73448 10.124C4.64893 10.0414 4.64893 9.90634 4.73448 9.82374Z" fill="#F1F1F1"/>
<path d="M15.3719 3.74204C15.3695 3.73963 15.3695 3.73963 15.3719 3.74204V3.74204Z" fill="#F1F1F1"/>
<path d="M16.0686 9.82377C16.1541 9.90637 16.1541 10.0414 16.0686 10.124L13.3458 12.7529L12.6762 13.3994L10.8632 15.1499L10.5572 15.4453C10.4716 15.5279 10.3318 15.5279 10.2462 15.4453L7.49054 12.7847L5.67919 11.0358L4.73485 10.124L1.77845 7.26953L1.69783 7.34737C0.195775 8.79763 0.195775 11.1501 1.69783 12.6004L2.38223 13.2612L7.52344 18.2251L7.68138 18.3776C9.18344 19.8279 11.62 19.8279 13.122 18.3776L13.2026 18.2998L19.025 12.6782L16.0686 9.82377Z" fill="#F1F1F1"/>
<path d="M15.3689 3.74226C15.3689 3.74067 15.3689 3.74067 15.3689 3.74226C15.262 3.51352 15.0728 3.32291 14.8211 3.21172C14.8128 3.20854 14.8063 3.20377 14.798 3.2006C14.7651 3.1863 14.7306 3.17518 14.6977 3.16406C14.7174 3.27843 14.7043 3.40074 14.6533 3.51511C14.6401 3.5437 14.6236 3.57071 14.6055 3.59771C14.4361 3.86298 14.089 3.97735 13.7846 3.85186C13.6398 3.79309 13.5296 3.68825 13.4605 3.56435C13.4161 3.62472 13.3766 3.69143 13.3453 3.76291C13.1051 4.30616 13.3651 4.9336 13.9277 5.16552C14.4904 5.39743 15.1402 5.14646 15.3804 4.6032C15.5071 4.31569 15.4939 4.00594 15.3689 3.74226Z" fill="#F1F1F1"/>
<path d="M7.82446 6.82129C7.82117 6.83082 7.81459 6.84035 7.81294 6.85147C7.24206 9.7647 6.96074 10.1745 5.67749 11.0355L6.13321 11.4755C6.43099 11.1911 6.85873 10.7019 7.26345 9.9442C7.76194 9.01654 7.83104 7.61552 7.82446 6.82129Z" fill="#F1F1F1"/>
<path d="M14.3189 8.09552C14.3106 8.10188 14.3008 8.10982 14.2942 8.11458C14.0079 8.33697 13.7398 8.61971 13.5061 8.95806C12.802 9.97308 12.3973 11.4901 12.677 13.3994L12.6753 13.401C12.6753 13.401 12.6753 13.401 12.6753 13.4026L13.748 12.3859C13.7019 12.235 13.6591 12.0778 13.6197 11.9142C13.2495 10.402 13.5242 9.406 14.4867 8.30202C14.6068 8.16383 14.8848 7.88902 15.1299 7.65234C15.1201 7.65552 15.1119 7.6587 15.102 7.66187C14.8338 7.75718 14.5706 7.90332 14.3189 8.09552Z" fill="#F1F1F1"/>
<path d="M13.5059 8.95801C12.8017 9.97303 12.3954 11.49 12.6751 13.4009L12.6767 13.3993C12.397 11.49 12.8017 9.97303 13.5059 8.95801Z" fill="#F1F1F1"/>
<path d="M13.5059 8.95801C12.8017 9.97303 12.3954 11.49 12.6751 13.4009L12.6767 13.3993C12.397 11.49 12.8017 9.97303 13.5059 8.95801Z" fill="#F1F1F1"/>
<path d="M18.7688 4.86316C18.1387 4.00539 16.2287 3.60828 16.2287 3.60828C16.2287 3.60828 15.9687 2.91253 15.2958 2.69491C14.6871 2.49953 13.7708 2.85058 13.7708 2.85058L13.7839 2.8617C13.9583 2.79181 14.1475 2.7521 14.3449 2.74892C14.3926 2.74892 14.4387 2.74892 14.4864 2.75369C15.1445 2.80611 15.6693 3.25882 15.8239 3.84337C19.0321 4.61059 18.9942 5.53666 18.0219 6.30071C17.9841 6.33089 17.9429 6.36107 17.9018 6.38967L17.9183 6.40396C17.9199 6.40555 19.3726 5.68598 18.7688 4.86316Z" fill="#F1F1F1"/>
<path d="M15.8258 3.84542C15.6695 3.26087 15.1463 2.80816 14.4882 2.75574C14.4405 2.75256 14.3928 2.75098 14.3468 2.75098C14.1493 2.75257 13.9601 2.79386 13.7858 2.86376C13.4765 2.98925 13.2165 3.21004 13.052 3.49279C11.0909 3.52614 9.00977 4.206 8.08188 6.2154C7.98975 6.41555 7.90749 6.61887 7.82852 6.82219C7.83511 7.61642 7.76436 9.01903 7.26916 9.9451C6.86444 10.7028 6.4367 11.192 6.13892 11.4764L7.49455 12.7853L10.2502 15.4459C10.3358 15.5285 10.4756 15.5285 10.5612 15.4459L10.8672 15.1505L12.6785 13.4016C12.3989 11.4907 12.8052 9.97369 13.5094 8.95867C13.7446 8.61874 14.0128 8.33599 14.299 8.11202C14.3073 8.10567 14.3139 8.1009 14.3221 8.09455C14.5722 7.90393 14.837 7.75621 15.1052 7.65931C15.1151 7.65613 15.1233 7.65296 15.1332 7.64978C15.1595 7.64025 15.1858 7.63072 15.2121 7.62119C15.9722 7.38133 17.1567 6.93021 17.9069 6.39013C17.9481 6.35995 17.9876 6.33136 18.027 6.30118C18.9961 5.53713 19.0339 4.61106 15.8258 3.84542ZM15.3816 4.60312C15.1414 5.14637 14.4899 5.39735 13.9289 5.16543C13.3662 4.93352 13.1063 4.30449 13.3465 3.76282C13.3777 3.69134 13.4172 3.62463 13.4616 3.56427C13.5307 3.68817 13.641 3.79142 13.7858 3.85178C14.0918 3.97727 14.4389 3.8629 14.6067 3.59762C14.61 3.59127 14.6133 3.58492 14.6182 3.57856C14.6314 3.55791 14.6445 3.53885 14.6544 3.51661C14.7054 3.40224 14.7186 3.27993 14.6988 3.16556C14.7334 3.17668 14.7663 3.1878 14.7992 3.2021C14.8074 3.20528 14.814 3.21004 14.8222 3.21322C15.0739 3.32441 15.2631 3.51502 15.3701 3.74217L15.3717 3.74376C15.3717 3.74376 15.3717 3.74376 15.3701 3.74376C15.4507 3.9169 15.4836 4.10911 15.4622 4.3029C15.4507 4.40297 15.426 4.50463 15.3816 4.60312Z" fill="#F1F1F1"/>
</svg>
