<svg width="30" height="30" viewBox="0 0 24 24" fill="none" xmlns="http://www.w3.org/2000/svg">
<path d="M11.5579 16.8528C11.6277 16.8529 11.6969 16.8668 11.7614 16.8938C11.8259 16.9208 11.8845 16.9602 11.9338 17.0099C11.9832 17.0597 12.0223 17.1187 12.0489 17.1836C12.0755 17.2485 12.0892 17.318 12.0891 17.3882C12.089 17.4585 12.0751 17.528 12.0483 17.5928C12.0215 17.6576 11.9822 17.7165 11.9328 17.7661C11.8833 17.8157 11.8246 17.855 11.76 17.8818C11.6954 17.9085 11.6262 17.9223 11.5564 17.9222C11.4153 17.922 11.28 17.8654 11.1804 17.765C11.0808 17.6646 11.0249 17.5285 11.0251 17.3867C11.0253 17.2449 11.0816 17.109 11.1815 17.0089C11.2814 16.9087 11.4168 16.8526 11.5579 16.8528ZM19.9002 13.5466C19.8304 13.5466 19.7612 13.5327 19.6967 13.5058C19.6322 13.4789 19.5735 13.4395 19.5242 13.3898C19.4748 13.3401 19.4357 13.2811 19.409 13.2162C19.3823 13.1513 19.3686 13.0818 19.3686 13.0116C19.3687 12.9414 19.3825 12.8719 19.4093 12.807C19.436 12.7422 19.4753 12.6832 19.5247 12.6336C19.5741 12.584 19.6328 12.5447 19.6974 12.5178C19.7619 12.491 19.8311 12.4772 19.901 12.4773C20.0421 12.4774 20.1774 12.5338 20.2771 12.6342C20.3768 12.7345 20.4327 12.8705 20.4326 13.0123C20.4325 13.1542 20.3764 13.2901 20.2765 13.3903C20.1767 13.4905 20.0413 13.5467 19.9002 13.5466ZM19.9002 11.3593C19.464 11.3597 19.0458 11.534 18.7374 11.844C18.4289 12.154 18.2555 12.5743 18.2551 13.0127C18.2551 13.1899 18.2846 13.3664 18.3421 13.5383L12.9079 16.4459C12.7572 16.226 12.5556 16.0462 12.3204 15.9221C12.0852 15.7979 11.8235 15.7331 11.5579 15.7333C10.9305 15.7333 10.3592 16.0945 10.0822 16.6581L5.20045 14.0707C4.68434 13.7984 4.2984 12.945 4.33927 12.1677C4.36046 11.7624 4.4997 11.4475 4.71234 11.3258C4.84705 11.2497 5.00899 11.2558 5.18153 11.3463L5.21331 11.3638C6.50735 12.0483 10.7406 14.2897 10.9192 14.3726C11.1939 14.5011 11.3467 14.5529 11.8159 14.3293L20.5669 9.75523C20.6956 9.70656 20.8454 9.58259 20.8454 9.39473C20.8454 9.13462 20.5775 9.03194 20.5768 9.03194C20.0788 8.79236 19.3138 8.43262 18.5676 8.08124C16.9724 7.33056 15.1645 6.48025 14.3707 6.06194C13.6851 5.70143 13.1334 6.00566 13.035 6.0665L12.8443 6.16157C9.27098 7.93749 4.48835 10.3181 4.21592 10.4846C3.72933 10.7828 3.42739 11.3768 3.38804 12.1137C3.3275 13.2827 3.92003 14.5019 4.76834 14.9484L9.93087 17.624C9.98774 18.0171 10.1834 18.3764 10.4821 18.6364C10.7809 18.8964 11.1627 19.0398 11.5579 19.0402C11.9895 19.0395 12.4035 18.8685 12.711 18.5642C13.0186 18.2598 13.1949 17.8463 13.2023 17.4126L18.8885 14.3148C19.176 14.5415 19.534 14.6654 19.9002 14.6654C20.3364 14.665 20.7547 14.4907 21.0631 14.1807C21.3715 13.8707 21.545 13.4504 21.5454 13.012C21.545 12.5736 21.3715 12.1532 21.0631 11.8432C20.7547 11.5332 20.3364 11.3589 19.9002 11.3585" fill="#F1F1F1"/>
</svg>
