<svg width="30" height="30" viewBox="0 0 24 24" fill="none" xmlns="http://www.w3.org/2000/svg">
<path d="M13.2748 12.1517C13.2748 14.9184 11.061 17.1618 8.32876 17.1618C7.68024 17.1627 7.0379 17.0338 6.43842 16.7825C5.83893 16.5312 5.29404 16.1624 4.83486 15.6971C4.37568 15.2319 4.01119 14.6794 3.76222 14.071C3.51324 13.4627 3.38465 12.8105 3.38379 12.1517C3.38379 9.3839 5.59763 7.14161 8.32876 7.14161C8.97737 7.14058 9.61983 7.26937 10.2194 7.52061C10.819 7.77185 11.3641 8.14062 11.8234 8.60587C12.2827 9.07111 12.6472 9.62372 12.8963 10.2321C13.1453 10.8405 13.274 11.4928 13.2748 12.1517ZM18.6998 12.1517C18.6998 14.757 17.5929 16.8679 16.2273 16.8679C14.8618 16.8679 13.7549 14.7558 13.7549 12.1517C13.7549 9.54645 14.8618 7.43553 16.2273 7.43553C17.5929 7.43553 18.6998 9.54757 18.6998 12.1517ZM20.9191 12.1517C20.9191 14.4853 20.5301 16.3769 20.049 16.3769C19.5689 16.3769 19.1799 14.4842 19.1799 12.1517C19.1799 9.81811 19.5689 7.92652 20.05 7.92652C20.5301 7.92652 20.9191 9.81811 20.9191 12.1517Z" fill="#F1F1F1"/>
</svg>
