<svg width="30" height="30" viewBox="0 0 24 24" fill="none" xmlns="http://www.w3.org/2000/svg">
<path d="M11.1285 13.2088C10.7875 13.5644 10.4539 13.91 10.1214 14.257C8.4722 15.9786 6.82451 17.7014 5.17829 19.4254C5.0558 19.5537 4.93441 19.6096 4.7527 19.6032C4.33115 19.5904 3.90887 19.5992 3.42847 19.5992L10.4226 12.294L3.48659 3.32938C3.56273 3.32263 3.61276 3.31409 3.66241 3.31409C5.32997 3.31409 6.99752 3.31314 8.66507 3.31125C8.71865 3.30764 8.77225 3.31801 8.82027 3.34128C8.86828 3.36455 8.90895 3.39986 8.93801 3.44351C10.3733 5.30497 11.8114 7.16464 13.2521 9.02254C13.2922 9.07409 13.3341 9.12458 13.4202 9.23089C13.4525 9.17116 13.4691 9.11605 13.5051 9.07871C15.2985 7.20351 17.0921 5.32879 18.8859 3.45454C18.9805 3.35534 19.0746 3.3084 19.217 3.31231C19.6032 3.32191 19.9895 3.31516 20.3757 3.31623C20.4338 3.31623 20.4919 3.32227 20.5905 3.32796L14.0952 10.1102L21.4285 19.5889C21.3394 19.5932 21.2813 19.5989 21.2239 19.5989C19.5687 19.5989 17.9134 19.6 16.2581 19.6021C16.2016 19.6064 16.145 19.596 16.0941 19.5719C16.0433 19.5478 16 19.511 15.969 19.4652C14.4127 17.4468 12.8538 15.4304 11.2922 13.4158C11.2411 13.3496 11.1885 13.2846 11.1285 13.2088ZM19.1026 18.4728C19.0419 18.3889 19.0025 18.3306 18.9599 18.2762C17.9034 16.9107 16.8467 15.5457 15.7898 14.1813C13.3096 10.9758 10.8303 7.76991 8.35204 4.56351C8.32279 4.51984 8.28199 4.48452 8.23387 4.4612C8.18576 4.43788 8.13207 4.42742 8.07836 4.43089C7.37946 4.43658 6.68056 4.43338 5.98166 4.43409C5.9309 4.43409 5.88014 4.4412 5.80988 4.44654C5.85292 4.50627 5.8794 4.54538 5.90846 4.58271L12.5013 13.1025C13.8513 14.8474 15.2022 16.5915 16.5542 18.3349C16.6024 18.3968 16.6929 18.4661 16.7642 18.4672C17.5301 18.4768 18.2959 18.4728 19.1026 18.4728Z" fill="#F1F1F1"/>
</svg>
